# xmcd
#
# Track frame offsets:
#	150
#	15155
#	36141
#	52245
#	69298
#	87875
#	106980
#	123562
#	139752
#	156044
#	173174
#	190736
#	206369
#	223350
#	243561
#	261464
#	278771
#	296037
#	313253
#	330794
#
# Disc length: 4636 seconds
#
# Revision: 1
# Processed by: cddbd v1.5.1PL0 Copyright (c) Steve Scherf et al.
# Submitted via: audiograbber 1.83.01
#
DISCID=28121a14
DTITLE=Дима Маликов - De Luxe Collection (Shmel Grab)
DYEAR=2001
DGENRE=Pop
TTITLE0=Птицелов
TTITLE1=Апрель
TTITLE2=Зимушка
TTITLE3=Если я останусь один
TTITLE4=Зови - не зови
TTITLE5=Бисер
TTITLE6=С Днем рождения мама
TTITLE7=До утра
TTITLE8=Звезда моя Далекая
TTITLE9=После бала
TTITLE10=Бумажный змей
TTITLE11=Ты одна, ты такая
TTITLE12=До завтра
TTITLE13=Ты не прячь улыбку
TTITLE14=Ты меня никогда не любила
TTITLE15=Все вернется
TTITLE16=Спой мне
TTITLE17=Сторона родная
TTITLE18=Золотой рассвет
TTITLE19=Нет, ты не Для меня
EXTD=Grab On Radio Terra for Tanya 17092004  (by Shmel)
EXTT0=
EXTT1=
EXTT2=
EXTT3=
EXTT4=
EXTT5=
EXTT6=
EXTT7=
EXTT8=
EXTT9=
EXTT10=
EXTT11=
EXTT12=
EXTT13=
EXTT14=
EXTT15=
EXTT16=
EXTT17=
EXTT18=
EXTT19=
PLAYORDER=
